<?xml version="1.0" encoding="UTF-8" standalone="no"?>
<!DOCTYPE svg PUBLIC "-//W3C//DTD SVG 1.1//EN" "http://www.w3.org/Graphics/SVG/1.1/DTD/svg11.dtd">
<svg width="256.00" height="256.00" viewBox="0.00 0.00 256.00 256.00" xmlns="http://www.w3.org/2000/svg" xmlns:xlink="http://www.w3.org/1999/xlink">
<g stroke-linecap="round" id="Layer_1">
<path d="M142.16,104.07 L141.48,185.70" fill="none" stroke="rgb(255, 255, 255)" stroke-width="3.00" stroke-opacity="1.00" stroke-linejoin="round"/>
<path d="M140.80,102.03 L248.27,149.64" fill="none" stroke="rgb(255, 255, 255)" stroke-width="3.00" stroke-opacity="1.00" stroke-linejoin="round"/>
<path d="M140.12,99.31 L138.76,116.99" fill="none" stroke="rgb(255, 255, 255)" stroke-width="3.00" stroke-opacity="1.00" stroke-linejoin="round"/>
<path d="M140.12,99.99 L138.08,121.76" fill="none" stroke="rgb(255, 255, 255)" stroke-width="3.00" stroke-opacity="1.00" stroke-linejoin="round"/>
<path d="M247.59,149.64 L244.87,227.87" fill="none" stroke="rgb(255, 255, 255)" stroke-width="3.00" stroke-opacity="1.00" stroke-linejoin="round"/>
<path d="M230.59,165.97 L229.91,214.94" fill="none" stroke="rgb(255, 255, 255)" stroke-width="3.00" stroke-opacity="1.00" stroke-linejoin="round"/>
<path d="M196.58,150.32 L231.27,165.29" fill="none" stroke="rgb(255, 255, 255)" stroke-width="3.00" stroke-opacity="1.00" stroke-linejoin="round"/>
<path d="M156.45,133.32 L180.25,143.52" fill="none" stroke="rgb(255, 255, 255)" stroke-width="3.00" stroke-opacity="1.00" stroke-linejoin="round"/>
<path d="M180.93,146.24 L181.61,169.37" fill="none" stroke="rgb(255, 255, 255)" stroke-width="3.00" stroke-opacity="1.00" stroke-linejoin="round"/>
<path d="M180.25,144.20 L180.93,170.05" fill="none" stroke="rgb(255, 255, 255)" stroke-width="3.00" stroke-opacity="1.00" stroke-linejoin="round"/>
<path d="M156.45,134.00 L157.13,180.25" fill="none" stroke="rgb(255, 255, 255)" stroke-width="3.00" stroke-opacity="1.00" stroke-linejoin="round"/>
<path d="M128.73,180.50 C131.47,180.05 138.34,180.25 140.69,180.83 C144.29,181.78 150.46,185.50 152.30,188.08 C153.20,189.40 154.52,192.36 154.76,193.69 C154.97,195.02 154.70,198.25 154.28,199.79 C153.39,202.83 148.79,208.38 145.69,210.46 C143.66,211.78 137.25,214.23 134.51,214.70 C131.77,215.15 124.90,214.95 122.55,214.37 C118.95,213.42 112.78,209.70 110.94,207.12 C110.03,205.80 108.72,202.84 108.48,201.51 C108.27,200.18 108.54,196.95 108.96,195.41 C109.85,192.36 114.45,186.82 117.55,184.74 C119.57,183.42 125.99,180.97 128.73,180.50 Z" fill="none" stroke="rgb(255, 255, 255)" stroke-width="4.00" stroke-opacity="1.00" stroke-linejoin="round"/>
<path d="M181.22,171.65 C183.61,172.06 189.68,174.63 192.22,177.12 C193.64,178.56 195.21,181.43 195.58,183.22 C195.89,185.01 195.42,187.86 194.56,189.45 C193.64,191.03 191.23,193.25 189.43,194.15 C186.22,195.70 179.64,196.20 177.25,195.82 C174.86,195.41 168.79,192.84 166.24,190.35 C164.83,188.91 163.26,186.04 162.89,184.25 C162.58,182.47 163.05,179.61 163.91,178.02 C164.83,176.44 167.24,174.23 169.04,173.32 C172.25,171.77 178.82,171.28 181.22,171.65 Z" fill="none" stroke="rgb(255, 255, 255)" stroke-width="4.00" stroke-opacity="1.00" stroke-linejoin="round"/>
<path d="M226.40,212.43 C229.73,212.97 236.64,216.12 239.12,218.45 C241.81,221.06 244.42,226.23 244.70,229.52 C244.90,232.51 242.53,238.35 240.52,240.44 C238.47,242.49 232.05,245.62 228.47,246.08 C224.51,246.53 217.85,245.49 214.21,243.86 C210.94,242.33 205.77,237.40 204.44,234.82 C203.16,232.23 202.67,225.94 203.77,223.16 C205.04,220.10 209.10,215.97 212.45,214.30 C215.52,212.84 223.07,211.93 226.40,212.43 Z" fill="none" stroke="rgb(255, 255, 255)" stroke-width="4.00" stroke-opacity="1.00" stroke-linejoin="round"/>
<path d="M195.90,151.69 L196.58,186.38" fill="none" stroke="rgb(255, 255, 255)" stroke-width="3.00" stroke-opacity="1.00" stroke-linejoin="round"/>
<path d="M157.13,136.04 L157.13,197.26" fill="none" stroke="rgb(255, 255, 255)" stroke-width="3.00" stroke-opacity="1.00" stroke-linejoin="round"/>
<path d="M155.77,195.22 Q155.77,211.54 136.04,214.94" fill="none" stroke="rgb(255, 255, 255)" stroke-width="5.00" stroke-opacity="1.00" stroke-linejoin="round"/>
<path d="M140.80,99.31 C140.80,99.31 145.56,99.38 145.56,99.38 C145.56,99.38 146.92,99.99 146.92,99.99 C146.92,99.99 141.96,99.30 141.96,99.30" fill="none" stroke="rgb(255, 255, 255)" stroke-width="5.00" stroke-opacity="1.00" stroke-linejoin="round"/>
<path d="M134.62,106.86 C134.65,106.82 140.50,100.63 142.37,100.13 C142.88,99.99 145.70,100.00 146.92,99.99 C146.35,100.25 142.13,101.06 140.33,102.51 C138.44,104.08 136.72,107.47 136.72,107.47 C136.72,107.47 136.72,108.63 136.72,108.63 C136.72,108.63 136.04,110.19 136.04,110.19 C136.04,111.21 136.04,112.23 136.04,113.25 C136.04,113.93 136.04,114.61 136.04,115.29 C136.04,115.54 136.04,115.79 136.04,116.04 C136.04,116.79 136.04,117.54 136.04,118.29" fill="none" stroke="rgb(255, 255, 255)" stroke-width="5.00" stroke-opacity="1.00" stroke-linejoin="round"/>
<path d="M247.59,147.60 C247.59,147.60 246.91,146.92 246.91,146.92 C246.91,146.92 246.57,146.58 246.57,146.58 C247.86,147.40 249.59,149.36 250.04,151.01 C250.33,152.04 250.48,154.72 250.99,155.09 C250.99,155.09 250.99,156.45 250.99,156.45 C250.99,156.45 248.27,144.88 248.27,144.88 C248.25,144.86 248.23,144.84 248.21,144.82 C248.08,144.69 247.96,144.57 247.84,144.45" fill="none" stroke="rgb(255, 255, 255)" stroke-width="5.00" stroke-opacity="1.00" stroke-linejoin="round"/>
</g>
<g stroke-linecap="round" transform="translate(7.00, 9.00)" id="Layer_5">
<path d="M105.93,112.78 C102.96,114.51 95.05,117.82 91.16,118.95 C86.81,120.19 80.03,121.18 75.52,121.23 C71.49,121.25 63.01,120.32 59.70,119.51 C56.40,118.67 48.53,115.49 45.02,113.57 C41.10,111.41 35.68,107.35 32.50,104.22 C29.67,101.41 24.43,94.79 22.71,91.89 C21.01,88.97 17.79,81.16 16.70,77.33 C15.52,73.02 14.63,66.31 14.64,61.82 C14.68,57.83 15.74,49.40 16.61,46.10 C17.51,42.82 20.82,34.95 22.80,31.44 C25.05,27.52 29.21,22.08 32.41,18.87 C35.29,16.03 42.03,10.72 44.98,8.97 C47.95,7.24 55.86,3.93 59.74,2.80 C64.10,1.56 70.88,0.58 75.39,0.53 C79.42,0.51 87.90,1.43 91.21,2.25 C94.51,3.09 102.38,6.27 105.89,8.18 C109.81,10.35 115.23,14.40 118.41,17.53 C121.23,20.35 126.48,26.96 128.20,29.87 C129.90,32.79 133.12,40.59 134.20,44.43 C135.39,48.74 136.28,55.45 136.27,59.93 C136.23,63.93 135.17,72.36 134.30,75.65 C133.40,78.94 130.08,86.80 128.11,90.31 C125.86,94.24 121.70,99.68 118.50,102.89 C115.62,105.73 108.88,111.03 105.93,112.78 Z" fill="none" stroke="rgb(255, 255, 255)" stroke-width="4.00" stroke-opacity="1.00" stroke-linejoin="round"/>
<path d="M75.98,58.34 C75.78,58.34 75.58,58.34 75.37,58.34 C75.12,58.34 74.87,58.34 74.62,58.34 C74.62,58.34 74.62,59.70 74.62,59.70 C74.62,59.70 75.37,59.02 75.37,59.02 C75.37,59.02 74.62,58.34 74.62,58.34 C74.62,58.34 73.94,59.36 73.94,59.36" fill="none" stroke="rgb(255, 255, 255)" stroke-width="10.00" stroke-opacity="1.00" stroke-linejoin="round"/>
<path d="M84.49,54.26 C84.41,54.26 84.33,54.26 84.25,54.26 C84.12,54.26 83.98,54.26 83.85,54.26 C83.78,54.26 83.70,54.26 83.63,54.26 C83.52,54.26 83.41,54.26 83.30,54.26" fill="none" stroke="rgb(255, 255, 255)" stroke-width="3.00" stroke-opacity="1.00" stroke-linejoin="round"/>
<path d="M82.00,59.00 L99.10,58.60 L108.15,58.39 L124.75,58.00" fill="none" stroke="rgb(255, 255, 255)" stroke-width="3.00" stroke-opacity="1.00" stroke-linejoin="round"/>
<path d="M124.50,58.25 L124.50,58.25" fill="none" stroke="rgb(255, 255, 255)" stroke-width="3.00" stroke-opacity="1.00" stroke-linejoin="round"/>
<path d="M31.75,36.43 L40.04,40.96 L56.20,49.78 L68.43,56.45" fill="none" stroke="rgb(255, 255, 255)" stroke-width="3.00" stroke-opacity="1.00" stroke-linejoin="round"/>
<path d="M74.75,65.75 L74.37,97.25 L73.85,112.75" fill="none" stroke="rgb(202, 0, 0)" stroke-width="3.00" stroke-opacity="1.00" stroke-linejoin="round"/>
</g>
<g stroke-linecap="round" id="Layer_6">
<path d="M85.00,14.75 L84.78,21.40" fill="none" stroke="rgb(0, 0, 0)" stroke-width="3.00" stroke-opacity="1.00" stroke-linejoin="round"/>
<path d="M81.00,120.31 L80.88,125.74" fill="none" stroke="rgb(0, 0, 0)" stroke-width="3.00" stroke-opacity="1.00" stroke-linejoin="round"/>
<path d="M132.14,67.25 L137.15,67.25" fill="none" stroke="rgb(0, 0, 0)" stroke-width="3.00" stroke-opacity="1.00" stroke-linejoin="round"/>
<path d="M27.50,66.25 L33.50,66.25" fill="none" stroke="rgb(0, 0, 0)" stroke-width="3.00" stroke-opacity="1.00" stroke-linejoin="round"/>
<path d="M111.00,24.00 L106.75,29.50" fill="none" stroke="rgb(0, 0, 0)" stroke-width="3.00" stroke-opacity="1.00" stroke-linejoin="round"/>
<path d="M131.25,45.75 L124.50,47.75" fill="none" stroke="rgb(0, 0, 0)" stroke-width="3.00" stroke-opacity="1.00" stroke-linejoin="round"/>
<path d="M133.50,89.00 L124.50,85.50" fill="none" stroke="rgb(0, 0, 0)" stroke-width="3.00" stroke-opacity="1.00" stroke-linejoin="round"/>
<path d="M111.25,114.25 L106.75,108.00" fill="none" stroke="rgb(0, 0, 0)" stroke-width="3.00" stroke-opacity="1.00" stroke-linejoin="round"/>
<path d="M57.00,119.25 L61.59,113.36" fill="none" stroke="rgb(0, 0, 0)" stroke-width="3.00" stroke-opacity="1.00" stroke-linejoin="round"/>
<path d="M36.25,96.75 L42.75,92.25" fill="none" stroke="rgb(0, 0, 0)" stroke-width="3.00" stroke-opacity="1.00" stroke-linejoin="round"/>
<path d="M33.72,42.70 L36.99,44.41" fill="none" stroke="rgb(0, 0, 0)" stroke-width="3.00" stroke-opacity="1.00" stroke-linejoin="round"/>
<path d="M57.98,20.47 L60.51,25.94" fill="none" stroke="rgb(0, 0, 0)" stroke-width="3.00" stroke-opacity="1.00" stroke-linejoin="round"/>
</g>
</svg>
